<?xml version="1.0" encoding="utf-8"?>
<!-- Generator: Adobe Illustrator 22.0.1, SVG Export Plug-In . SVG Version: 6.00 Build 0)  -->
<svg version="1.1" id="Camada_1" xmlns="http://www.w3.org/2000/svg" xmlns:xlink="http://www.w3.org/1999/xlink" x="0px" y="0px"
	 viewBox="0 0 50 49.3" style="enable-background:new 0 0 50 49.3;" xml:space="preserve">
<style type="text/css">
	.st0{fill:#F0F068;}
	.st1{fill:#C4C15C;}
</style>
<g>
	<polygon class="st0" points="12.8,40.9 25.2,35.4 37.3,40.9 36.2,27 44.8,17.4 31.5,14 24.8,2.9 18.1,13.9 5.4,16.7 5.4,18.9
		13.3,27 	"/>
	<g>
		<g>
			<g>
				<path class="st1" d="M45.1,20c0.9-0.8,1.2-2.1,0.8-3.3c-0.4-1.2-1.4-2-2.6-2.2l-10.5-1.5c-0.2,0-0.4-0.2-0.5-0.3l-4.7-9.5
					c-0.5-1.1-1.6-1.8-2.8-1.8c-1.2,0-2.3,0.7-2.8,1.8l-4.7,9.5c-0.1,0.2-0.3,0.3-0.5,0.3L6.2,14.6c-1.2,0.2-2.2,1-2.6,2.2
					c-0.4,1.2-0.1,2.4,0.8,3.3l7.6,7.4c0.1,0.1,0.2,0.4,0.2,0.6l-1.8,10.5c-0.2,1.2,0.3,2.4,1.3,3.1c1,0.7,2.3,0.8,3.3,0.2l9.4-5
					c0.2-0.1,0.4-0.1,0.6,0l9.4,5c0.5,0.2,1,0.4,1.5,0.4c0.7,0,1.3-0.2,1.9-0.6c1-0.7,1.5-1.9,1.3-3.1L37.3,28c0-0.2,0-0.4,0.2-0.6
					L45.1,20z M34.8,28.4l1.8,10.5c0.1,0.4-0.2,0.6-0.3,0.6c-0.1,0.1-0.4,0.2-0.7,0l-9.4-5c-0.5-0.2-1-0.4-1.5-0.4
					c-0.5,0-1,0.1-1.5,0.4l-9.4,5c-0.3,0.2-0.6,0-0.7,0c-0.1-0.1-0.3-0.3-0.3-0.6l1.8-10.5c0.2-1-0.2-2.1-0.9-2.8l-7.6-7.4
					C5.9,17.9,6,17.6,6,17.5c0-0.1,0.2-0.4,0.5-0.4l10.5-1.5c1-0.2,1.9-0.8,2.4-1.7l4.7-9.5c0.2-0.3,0.5-0.4,0.6-0.4
					c0.1,0,0.4,0,0.6,0.4v0l4.7,9.5c0.5,0.9,1.4,1.6,2.4,1.7l10.5,1.5c0.4,0.1,0.5,0.3,0.5,0.4c0,0.1,0.1,0.4-0.2,0.7l-7.6,7.4
					C34.9,26.3,34.6,27.4,34.8,28.4z"/>
			</g>
		</g>
		<g>
			<g>
				<path class="st0" d="M39.6,3.2c-0.6-0.4-1.4-0.3-1.8,0.3l-1.3,1.9c-0.4,0.6-0.3,1.4,0.3,1.8c0.2,0.2,0.5,0.2,0.7,0.2
					c0.4,0,0.8-0.2,1-0.5l1.3-1.9C40.3,4.4,40.1,3.6,39.6,3.2z"/> <!-- sparkle -->
			</g>
		</g>
		<g>
			<g>
				<path class="st0" d="M13,5.3l-1.3-1.9c-0.4-0.6-1.2-0.7-1.8-0.3C9.3,3.6,9.2,4.4,9.6,4.9L11,6.8c0.2,0.3,0.6,0.5,1,0.5
					c0.3,0,0.5-0.1,0.7-0.2C13.3,6.7,13.4,5.9,13,5.3z"/> <!-- sparkle -->
			</g>
		</g>
		<g>
			<g>
				<path class="st0" d="M5.3,29.9c-0.2-0.7-0.9-1-1.6-0.8l-2.2,0.7c-0.7,0.2-1,0.9-0.8,1.6c0.2,0.5,0.7,0.9,1.2,0.9
					c0.1,0,0.3,0,0.4-0.1l2.2-0.7C5.2,31.3,5.6,30.5,5.3,29.9z"/> <!-- sparkle -->
			</g>
		</g>
		<g>
			<g>
				<path class="st0" d="M24.8,44c-0.7,0-1.3,0.6-1.3,1.3v2.3c0,0.7,0.6,1.3,1.3,1.3c0.7,0,1.3-0.6,1.3-1.3v-2.3
					C26,44.5,25.5,44,24.8,44z"/> <!-- sparkle -->
			</g>
		</g>
		<g>
			<g>
				<path class="st0" d="M47.9,29.8l-2.2-0.7c-0.7-0.2-1.4,0.1-1.6,0.8c-0.2,0.7,0.1,1.4,0.8,1.6l2.2,0.7c0.1,0,0.3,0.1,0.4,0.1
					c0.5,0,1-0.3,1.2-0.9C49,30.7,48.6,30,47.9,29.8z"/> <!-- sparkle -->
			</g>
		</g>
	</g>
</g>
</svg>
